<svg xmlns="http://www.w3.org/2000/svg" viewBox="0 0 900 1200">
  <rect width="900" height="1200" fill="#050505"/>
  <path d="M0 1040 176 944l138 70 132-176 177 54 277-142v450H0Z" fill="#101010"/>
  <path d="m330 1200 78-386-80-89 111-335 135 89-50 214 97 90-84 417H330Z" fill="#181818"/>
  <path d="M516 199h94l39 89-28 752-83 60-22-901Z" fill="#111"/>
  <path d="m563 92 25-67 22 69-8 105h-31l-8-107Z" fill="#0a0a0a"/>
  <path d="M561 242h47v424h-47V242Zm8 0 31-62-4 62h-27Z" fill="#292929"/>
  <path d="M530 148h92l25 50-115 43-2-93Zm29 105 66-31-16 135-58-3 8-101Z" fill="#6b6b6b"/>
  <path d="m573 458 35 15-6 217-36-7 7-225Z" fill="#878787"/>
  <path d="M580 351h20v57h-20v-57Zm0 79h20v57h-20v-57Zm0 80h20v57h-20v-57Zm0 80h20v57h-20v-57Zm-40-225h16v42h-16v-42Zm0 61h16v42h-16v-42Zm0 62h16v42h-16v-42Zm0 62h16v42h-16v-42Zm80-197h16v42h-16v-42Zm0 61h16v42h-16v-42Zm0 62h16v42h-16v-42Zm0 62h16v42h-16v-42Z" fill="#d9d9d9" opacity=".54"/>
  <path d="m140 384 154 77-44 619-154-82 44-614Z" fill="#121212"/>
  <path d="m186 326 94 37-39 645-85-45 30-637Z" fill="#242424"/>
  <path d="m203 412 35 18-9 180-35-12 9-186Z" fill="#b8b8b8" opacity=".58"/>
  <path d="m204 621 34 12-6 153-34-11 6-154Z" fill="#4e4e4e"/>
  <path d="m704 560 125-76 71 133-83 409-145-49 32-417Z" fill="#0e0e0e"/>
  <path d="m725 493 92-51 55 96-74 557-102-37 29-565Z" fill="#202020"/>
  <path d="m748 552 41-16 12 127-43 6-10-117Z" fill="#737373" opacity=".62"/>
  <path d="m748 728 43-6 12 150-44 3-11-147Z" fill="#393939"/>
  <path d="M0 0h900v1200H0V0Zm0 0 900 1200M900 0 0 1200" fill="none" stroke="#fff" stroke-opacity=".04"/>
  <path d="M136 96h284l-51 690-196-79 36-327-97-74 24-210Z" fill="#d9d9d9" opacity=".1"/>
  <path d="m458 54 256 56-173 431 214 146-219 412-52-421 137-630Z" fill="#fff" opacity=".05"/>
</svg>
